<svg width="208" height="60" viewBox="0 0 208 60" fill="none" xmlns="http://www.w3.org/2000/svg">
<g clip-path="url(#clip0_1255_3667)">
<path d="M90.0289 39.3949H86.2962L84.2343 34.5245H74.707L72.6451 39.3949H69.0186L77.9066 19.0957H81.1772L90.0289 39.3949ZM79.4707 23.3262L76.0224 31.396H82.9547L79.4707 23.3262Z" fill="#397F4B"/>
<path d="M105.173 42.1677C103.751 43.412 101.725 44.0519 99.1297 44.0519C96.6057 44.0519 94.3303 43.4475 92.3393 42.2388L93.6195 39.6081C94.437 40.1058 95.2545 40.4969 96.1435 40.7813C97.032 41.0656 97.992 41.2079 99.023 41.2079C100.587 41.2079 101.76 40.8168 102.578 40.0347C103.395 39.2526 103.822 38.0794 103.822 36.5152V35.3421C103.183 36.1953 102.436 36.8707 101.618 37.3684C100.765 37.9017 99.7337 38.1506 98.4899 38.1506C97.6009 38.1506 96.7124 37.9728 95.8943 37.6884C95.0768 37.3684 94.3303 36.9063 93.6905 36.3019C93.0507 35.6976 92.5176 34.9511 92.1616 34.0623C91.7705 33.1735 91.5928 32.1781 91.5928 31.0405C91.5928 29.9029 91.7705 28.9075 92.1616 28.0188C92.5528 27.13 93.0507 26.3834 93.6905 25.7791C94.3303 25.1748 95.0768 24.7126 95.8943 24.3571C96.7476 24.0371 97.6009 23.8594 98.4899 23.8594C99.7695 23.8594 100.836 24.1083 101.69 24.6415C102.542 25.1748 103.254 25.7791 103.822 26.4901V24.1793H107.306V36.2664C107.306 38.9682 106.595 40.9235 105.173 42.1677ZM103.538 29.2985C103.289 28.7653 102.969 28.3387 102.578 27.9832C102.187 27.6277 101.69 27.3433 101.156 27.13C100.623 26.9167 100.054 26.81 99.4493 26.81C98.8453 26.81 98.2764 26.9167 97.7433 27.13C97.2097 27.3433 96.7833 27.6277 96.357 27.9832C95.9658 28.3387 95.6457 28.8008 95.4322 29.2985C95.2193 29.7963 95.1126 30.4006 95.1126 31.005C95.1126 31.6093 95.2193 32.2137 95.468 32.7114C95.7166 33.209 96.001 33.6712 96.3922 34.0267C96.7834 34.3822 97.2455 34.7022 97.7785 34.8799C98.3122 35.0932 98.881 35.1644 99.4493 35.1644C100.018 35.1644 100.623 35.0577 101.156 34.8799C101.69 34.7022 102.187 34.3822 102.578 34.0267C102.969 33.6712 103.289 33.209 103.538 32.7114C103.787 32.2137 103.893 31.6449 103.893 31.005C103.893 30.4006 103.751 29.8318 103.538 29.2985Z" fill="#397F4B"/>
<path d="M115.163 39.395H111.644V24.1796H115.163V27.5923C115.661 26.4548 116.336 25.5305 117.225 24.8194C118.114 24.144 119.216 23.8241 120.567 23.8596V27.5568H120.353C119.572 27.5568 118.896 27.699 118.256 27.9123C117.616 28.1611 117.083 28.5522 116.621 29.0499C116.159 29.5476 115.803 30.1875 115.555 30.9341C115.305 31.6807 115.199 32.5694 115.199 33.5648V39.395H115.163Z" fill="#397F4B"/>
<path d="M123.624 21.833V18.5269H127.392V21.833H123.624ZM123.767 39.3948V24.1793H127.286V39.3948H123.767Z" fill="#397F4B"/>
<path d="M148.083 37.6528C147.514 38.0794 146.91 38.4705 146.269 38.7904C145.629 39.1103 144.883 39.3592 144.136 39.5014C143.355 39.6792 142.501 39.7503 141.541 39.7503C140.048 39.7503 138.697 39.4658 137.453 38.9326C136.209 38.3993 135.142 37.6528 134.218 36.7285C133.294 35.8042 132.583 34.7021 132.085 33.4223C131.552 32.1426 131.303 30.7916 131.303 29.334C131.303 27.912 131.552 26.5256 132.049 25.2813C132.547 24.0015 133.258 22.8995 134.182 21.9396C135.107 20.9798 136.209 20.2332 137.453 19.7C138.697 19.1667 140.119 18.8823 141.648 18.8823C142.572 18.8823 143.426 18.9534 144.172 19.0956C144.919 19.2378 145.629 19.4511 146.269 19.7355C146.91 20.0199 147.478 20.3399 148.012 20.7309C148.545 21.122 149.043 21.5486 149.54 22.0107L147.265 24.6415C146.447 23.8949 145.594 23.2905 144.705 22.8284C143.817 22.3662 142.786 22.153 141.612 22.153C140.652 22.153 139.764 22.3307 138.946 22.7217C138.128 23.0772 137.418 23.6105 136.813 24.2504C136.209 24.8903 135.747 25.6368 135.427 26.5256C135.107 27.4144 134.929 28.3031 134.929 29.334C134.929 30.365 135.107 31.2538 135.427 32.1426C135.747 33.0313 136.209 33.7778 136.813 34.4178C137.418 35.0576 138.128 35.5909 138.946 35.9464C139.764 36.3019 140.652 36.5152 141.612 36.5152C142.857 36.5152 143.888 36.2663 144.776 35.8042C145.665 35.3421 146.519 34.7021 147.407 33.8845L149.682 36.1953C149.22 36.7285 148.651 37.2262 148.083 37.6528Z" fill="#397F4B"/>
<path d="M160.88 39.8215C160.56 40.6035 160.24 41.279 159.92 41.8123C159.6 42.3455 159.245 42.7721 158.818 43.1276C158.427 43.4476 157.965 43.6964 157.503 43.8742C157.005 44.0164 156.472 44.0875 155.868 44.0875C155.157 44.0875 154.481 44.0164 153.912 43.8386C153.344 43.6609 152.81 43.4476 152.242 43.1632L153.415 40.568C153.735 40.7458 154.09 40.888 154.41 40.9946C154.73 41.1013 155.085 41.1724 155.476 41.1724C155.974 41.1724 156.401 41.0302 156.721 40.8169C157.04 40.568 157.361 40.1059 157.645 39.4304L151.317 24.2505H155.05L159.352 35.5555L163.298 24.2505H166.924L160.88 39.8215Z" fill="#397F4B"/>
<path d="M179.757 38.9326C178.797 39.4659 177.589 39.7148 176.095 39.7148C174.958 39.7148 173.927 39.5014 172.967 39.1104C172.007 38.7194 171.189 38.115 170.479 37.404C169.767 36.693 169.234 35.8398 168.808 34.9155C168.381 33.9912 168.203 32.9602 168.203 31.8582C168.203 30.7561 168.417 29.7252 168.808 28.7653C169.198 27.8055 169.767 26.9523 170.479 26.2413C171.189 25.5303 172.007 24.9259 173.003 24.4993C173.963 24.0727 175.029 23.8594 176.166 23.8594C177.588 23.8594 178.797 24.1082 179.757 24.5704C180.717 25.0681 181.535 25.6724 182.245 26.4901L180.077 28.8364C179.544 28.2676 178.975 27.8055 178.371 27.45C177.766 27.0945 177.02 26.9167 176.131 26.9167C175.491 26.9167 174.922 27.0589 174.389 27.3078C173.856 27.5566 173.394 27.9121 173.003 28.3743C172.611 28.8008 172.327 29.3341 172.114 29.9029C171.901 30.4717 171.794 31.1116 171.794 31.7871C171.794 32.4625 171.901 33.138 172.114 33.7068C172.327 34.3111 172.647 34.8089 173.038 35.271C173.429 35.7331 173.927 36.0531 174.46 36.3375C175.029 36.5864 175.633 36.7286 176.309 36.7286C177.126 36.7286 177.873 36.5508 178.477 36.1953C179.117 35.8398 179.686 35.3776 180.254 34.8089L182.352 36.8707C181.57 37.7239 180.717 38.3994 179.757 38.9326Z" fill="#397F4B"/>
<path d="M185.694 39.395V18.3848H189.214V39.395H185.694Z" fill="#397F4B"/>
<path d="M197.853 35.8754C198.635 36.5508 199.595 36.8707 200.733 36.8707C201.586 36.8707 202.332 36.7286 202.972 36.4086C203.612 36.0886 204.217 35.6621 204.856 35.0577L206.918 36.8707C206.207 37.7239 205.318 38.4349 204.323 38.9326C203.328 39.4659 202.119 39.7148 200.697 39.7148C199.595 39.7148 198.564 39.537 197.64 39.1459C196.68 38.7549 195.862 38.2216 195.151 37.5462C194.44 36.8707 193.907 36.0176 193.48 35.0577C193.089 34.0979 192.876 32.9958 192.876 31.8226C192.876 30.7205 193.054 29.6896 193.409 28.7298C193.764 27.7699 194.298 26.9167 194.938 26.2057C195.578 25.4947 196.395 24.9259 197.284 24.4993C198.173 24.0727 199.168 23.8594 200.27 23.8594C201.479 23.8594 202.546 24.0727 203.47 24.5348C204.394 24.9614 205.141 25.5658 205.745 26.3123C206.349 27.0589 206.812 27.9477 207.096 28.943C207.416 29.9385 207.558 31.005 207.558 32.0715C207.558 32.2137 207.558 32.3914 207.558 32.5336C207.558 32.6758 207.522 32.8536 207.522 33.0314H196.36C196.573 34.2756 197.071 35.2354 197.853 35.8754ZM204.145 30.7205C204.074 30.1518 203.967 29.654 203.79 29.1563C203.612 28.6586 203.328 28.232 203.008 27.8765C202.688 27.521 202.297 27.2366 201.834 27.0233C201.372 26.81 200.874 26.7034 200.306 26.7034C199.239 26.7034 198.35 27.0589 197.64 27.8055C196.929 28.552 196.502 29.5118 196.36 30.685L204.145 30.7205Z" fill="#397F4B"/>
<path d="M58.4246 29.3696C58.4246 15.4339 47.2261 4.12892 33.326 3.95117C33.4682 3.95117 33.5748 3.95117 33.7171 3.95117C47.7594 3.95117 59.1711 15.3273 59.1711 29.3696C59.1711 43.4119 47.7949 54.7879 33.7171 54.7879C33.5748 54.7879 33.3971 54.7879 33.2549 54.7879C47.1906 54.6457 58.4246 43.3053 58.4246 29.3696Z" fill="url(#paint0_radial_1255_3667)"/>
<path d="M14.84 46.3981C17.5062 48.6022 20.6702 50.202 24.1541 51.0907C26.0738 51.5884 30.4109 51.8373 30.5176 51.8017C43.4579 51.5884 53.8741 41.35 53.8741 28.7652C53.8741 16.1449 43.4223 5.87091 30.4465 5.72868C30.3399 5.72868 27.8869 5.79977 26.8204 5.94198C24.4385 6.26195 22.1633 6.93741 20.0658 7.89723C18.9993 8.39495 17.9684 8.96373 16.973 9.60366C20.3503 6.86627 24.403 4.98213 28.8823 4.27112C30.2332 4.05782 33.2194 3.95117 33.3261 3.95117C47.2262 4.12892 58.4246 15.4339 58.4246 29.3696C58.4246 43.3408 47.1906 54.6457 33.2905 54.7879C33.1839 54.7879 29.1667 54.7169 26.0383 53.8281C20.1014 52.1572 15.0888 48.3889 11.7471 43.3763C12.707 44.4784 13.7379 45.4738 14.84 46.3981Z" fill="url(#paint1_radial_1255_3667)"/>
<path d="M7.87221 30.294C7.87221 30.1873 7.83667 30.1162 7.83667 30.0451V30.0096C7.30342 20.0555 14.6978 11.2035 24.9007 9.31934C24.9363 9.31934 24.9719 9.31934 25.0074 9.31934C25.0074 9.31934 25.0074 9.31934 25.0429 9.31934C14.3068 11.2746 7.05453 21.3353 8.7965 31.9648C10.183 40.4258 16.8664 46.7537 25.0074 48.1757C25.3274 48.2113 26.2516 48.3535 27.3537 48.4246C27.1404 48.4957 26.8916 48.5312 26.6427 48.5668C26.3228 48.5668 25.9673 48.5312 25.6473 48.4957C25.434 48.4601 25.1852 48.4601 24.9719 48.4246C24.9363 48.4246 24.8652 48.4246 24.8297 48.389C24.6519 48.3535 24.4741 48.3535 24.2964 48.318C16.191 46.8959 9.47196 40.6035 8.0855 32.1426C7.97888 31.4316 7.94334 30.8628 7.87221 30.294Z" fill="url(#paint2_radial_1255_3667)"/>
<path d="M26.0029 7.71995C26.1095 7.71995 28.527 7.32885 31.5487 7.5422C34.0728 7.75549 36.4902 8.53756 38.6943 9.6396C40.1163 10.3507 41.4317 11.2039 42.6759 12.1992C39.6542 10.0662 36.0636 8.78645 32.2242 8.53756C30.9444 8.46649 29.0247 8.5731 28.1004 8.71531C28.0648 8.71531 28.0293 8.71531 27.9937 8.71531C17.7908 10.5995 10.3608 19.4515 10.9296 29.4056V29.4411C10.9296 29.5477 10.9296 29.6189 10.9652 29.6899C11.0007 30.2587 11.0718 30.8631 11.1785 31.4319C12.5649 39.8929 19.2484 46.1853 27.3894 47.6073C27.5671 47.6428 27.7449 47.6783 27.9226 47.6783C27.9582 47.6783 28.0293 47.6783 28.0648 47.7139C28.2781 47.7494 28.527 47.785 28.7403 47.785C29.0602 47.8205 29.4157 47.8561 29.7357 47.8561C30.1979 47.8561 30.6244 47.8916 31.0511 47.8561C31.4421 47.8561 31.7976 47.8205 32.1886 47.785C33.2551 47.7139 34.2861 47.5361 35.3526 47.2873C36.9879 46.9318 38.5877 46.3985 40.1163 45.7586C40.5074 45.6164 40.8629 45.4387 41.2184 45.2609C38.9076 46.8963 35.5659 48.176 32.8286 48.7448C31.4066 49.0293 29.9845 49.0648 28.598 48.9937C18.8929 48.6026 10.503 41.457 8.83214 31.503C6.94802 20.3047 14.6269 9.56852 26.0029 7.71995Z" fill="url(#paint3_radial_1255_3667)"/>
<path d="M1.29559 29.6188C1.29559 13.6213 14.1647 0.645431 30.0912 0.432129C29.9491 0.432129 29.7713 0.432129 29.6291 0.432129C13.4893 0.432129 0.442383 13.5146 0.442383 29.6188C0.442383 45.7586 13.5249 58.8054 29.6291 58.8054C29.8068 58.8054 29.9846 58.8054 30.1623 58.8054C14.2003 58.6635 1.29559 45.652 1.29559 29.6188Z" fill="url(#paint4_radial_1255_3667)"/>
<path d="M51.6705 49.7043C48.5777 52.2283 44.8804 54.148 40.8633 55.1435C38.6591 55.7123 33.611 55.9967 33.4688 55.9967C18.4667 55.7478 6.34406 43.8741 6.34406 29.2629C6.34406 14.6162 18.5022 2.70694 33.5399 2.52919C33.6466 2.52919 36.4906 2.6003 37.7704 2.77805C40.5433 3.1691 43.174 3.91565 45.627 5.05326C46.8712 5.62206 48.0799 6.26199 49.2176 7.00853C45.307 3.84455 40.5788 1.64044 35.3886 0.822784C33.8243 0.573936 30.376 0.467285 30.2338 0.467285C14.1295 0.680584 1.11816 13.7986 1.11816 29.9739C1.11816 46.1493 14.1651 59.3029 30.3049 59.4806C30.4115 59.4806 35.0686 59.3739 38.6947 58.3787C45.5559 56.4588 51.4217 52.0506 55.2611 46.2559C54.159 47.4646 52.9503 48.6378 51.6705 49.7043Z" fill="url(#paint5_radial_1255_3667)"/>
<path d="M38.3749 39.3949L36.1708 34.0269H26.039L23.8348 39.3949H18.4668L28.7408 15.2563H33.6111L43.8852 39.3949H38.3749ZM31.1226 21.5843L27.9587 29.3698H34.3221L31.1226 21.5843Z" fill="url(#paint6_linear_1255_3667)"/>
</g>
<defs>
<radialGradient id="paint0_radial_1255_3667" cx="0" cy="0" r="1" gradientUnits="userSpaceOnUse" gradientTransform="translate(55.9487 17.1428) rotate(180) scale(12.6606 12.6606)">
<stop offset="0.0275" stop-color="white"/>
<stop offset="0.3352" stop-color="#10B0E6"/>
<stop offset="1" stop-color="#004A80"/>
</radialGradient>
<radialGradient id="paint1_radial_1255_3667" cx="0" cy="0" r="1" gradientUnits="userSpaceOnUse" gradientTransform="translate(57.521 6.49433) rotate(180) scale(40.0996 40.0996)">
<stop offset="0.0275" stop-color="white"/>
<stop offset="0.3352" stop-color="#0099D4"/>
<stop offset="1" stop-color="#144968"/>
</radialGradient>
<radialGradient id="paint2_radial_1255_3667" cx="0" cy="0" r="1" gradientUnits="userSpaceOnUse" gradientTransform="translate(8.62071 24.3218) rotate(170.683) scale(11.815)">
<stop offset="0.0275" stop-color="white"/>
<stop offset="0.3352" stop-color="#FDC244"/>
<stop offset="1" stop-color="#E0A54F"/>
</radialGradient>
<radialGradient id="paint3_radial_1255_3667" cx="0" cy="0" r="1" gradientUnits="userSpaceOnUse" gradientTransform="translate(4.01506 21.5086) rotate(170.683) scale(25.5316 25.5316)">
<stop offset="0.0275" stop-color="white"/>
<stop offset="0.3352" stop-color="#FDC857"/>
<stop offset="1" stop-color="#E0A54F"/>
</radialGradient>
<radialGradient id="paint4_radial_1255_3667" cx="0" cy="0" r="1" gradientUnits="userSpaceOnUse" gradientTransform="translate(4.13711 15.624) scale(14.5322)">
<stop offset="0.0275" stop-color="white"/>
<stop offset="0.0356" stop-color="#FAFDFA"/>
<stop offset="0.1336" stop-color="#BCE8BC"/>
<stop offset="0.2232" stop-color="#8BD68B"/>
<stop offset="0.3013" stop-color="#68CA67"/>
<stop offset="0.3651" stop-color="#53C352"/>
<stop offset="0.4066" stop-color="#4BC04A"/>
<stop offset="1" stop-color="#397F4B"/>
</radialGradient>
<radialGradient id="paint5_radial_1255_3667" cx="0" cy="0" r="1" gradientUnits="userSpaceOnUse" gradientTransform="translate(2.16412 3.42204) scale(46.5167 46.5167)">
<stop offset="0.0275" stop-color="white"/>
<stop offset="0.4066" stop-color="#4BC04A"/>
<stop offset="1" stop-color="#397F4B"/>
</radialGradient>
<linearGradient id="paint6_linear_1255_3667" x1="18.4739" y1="27.315" x2="43.8674" y2="27.315" gradientUnits="userSpaceOnUse">
<stop stop-color="#BED956"/>
<stop offset="0.6313" stop-color="#287530"/>
</linearGradient>
<clipPath id="clip0_1255_3667">
<rect width="207.115" height="60" fill="white" transform="translate(0.442383)"/>
</clipPath>
</defs>
</svg>
