<svg width="40" height="41" viewBox="0 0 40 41" fill="none" xmlns="http://www.w3.org/2000/svg">
<g filter="url(#filter0_d_1452_3592)">
<g clip-path="url(#clip0_1452_3592)">
<path d="M15.6674 20C15.6674 17.6069 17.6069 15.6663 20 15.6663C22.3931 15.6663 24.3337 17.6069 24.3337 20C24.3337 22.3931 22.3931 24.3337 20 24.3337C17.6069 24.3337 15.6674 22.3931 15.6674 20ZM13.3247 20C13.3247 23.6868 16.3132 26.6753 20 26.6753C23.6868 26.6753 26.6753 23.6868 26.6753 20C26.6753 16.3132 23.6868 13.3247 20 13.3247C16.3132 13.3247 13.3247 16.3132 13.3247 20ZM25.3796 13.06C25.3795 13.3685 25.4709 13.6702 25.6422 13.9268C25.8135 14.1834 26.057 14.3834 26.342 14.5016C26.6271 14.6198 26.9407 14.6508 27.2433 14.5907C27.546 14.5307 27.824 14.3822 28.0423 14.1641C28.2605 13.946 28.4092 13.6681 28.4695 13.3656C28.5298 13.063 28.4991 12.7493 28.3811 12.4642C28.2631 12.1791 28.0633 11.9354 27.8068 11.7639C27.5503 11.5923 27.2488 11.5007 26.9402 11.5006H26.9396C26.526 11.5008 26.1295 11.6651 25.837 11.9575C25.5445 12.2499 25.38 12.6464 25.3796 13.06ZM14.748 30.5817C13.4806 30.524 12.7917 30.3128 12.3338 30.1345C11.7269 29.8982 11.2938 29.6168 10.8385 29.1621C10.3832 28.7074 10.1014 28.2748 9.86614 27.6678C9.68767 27.2102 9.47655 26.5211 9.41894 25.2537C9.35591 23.8834 9.34333 23.4717 9.34333 20.0001C9.34333 16.5285 9.35695 16.118 9.41894 14.7465C9.47666 13.4791 9.68934 12.7913 9.86614 12.3324C10.1024 11.7254 10.3838 11.2924 10.8385 10.8371C11.2932 10.3818 11.7259 10.0999 12.3338 9.86468C12.7914 9.68622 13.4806 9.4751 14.748 9.41748C16.1183 9.35446 16.5299 9.34187 20 9.34187C23.4701 9.34187 23.8821 9.3555 25.2536 9.41748C26.521 9.4752 27.2088 9.68788 27.6677 9.86468C28.2747 10.0999 28.7077 10.3824 29.163 10.8371C29.6183 11.2918 29.8991 11.7254 30.1354 12.3324C30.3139 12.79 30.525 13.4791 30.5826 14.7465C30.6456 16.118 30.6582 16.5285 30.6582 20.0001C30.6582 23.4717 30.6456 23.8822 30.5826 25.2537C30.5249 26.5211 30.3127 27.21 30.1354 27.6678C29.8991 28.2748 29.6177 28.7078 29.163 29.1621C28.7083 29.6164 28.2747 29.8982 27.6677 30.1345C27.2101 30.313 26.521 30.5241 25.2536 30.5817C23.8833 30.6447 23.4716 30.6573 20 30.6573C16.5284 30.6573 16.1179 30.6447 14.748 30.5817ZM14.6404 7.07873C13.2564 7.14175 12.3108 7.36119 11.4849 7.68255C10.6296 8.01442 9.90555 8.45964 9.18202 9.18202C8.4585 9.90441 8.01442 10.6296 7.68255 11.4849C7.36119 12.3113 7.14175 13.2564 7.07873 14.6404C7.01466 16.0265 7 16.4696 7 20C7 23.5304 7.01466 23.9735 7.07873 25.3596C7.14175 26.7437 7.36119 27.6887 7.68255 28.5151C8.01442 29.3699 8.4586 30.0959 9.18202 30.818C9.90545 31.54 10.6296 31.9846 11.4849 32.3174C12.3123 32.6388 13.2564 32.8582 14.6404 32.9213C16.0272 32.9843 16.4696 33 20 33C23.5304 33 23.9735 32.9853 25.3596 32.9213C26.7437 32.8582 27.6887 32.6388 28.5151 32.3174C29.3699 31.9846 30.0944 31.5404 30.818 30.818C31.5415 30.0956 31.9846 29.3699 32.3174 28.5151C32.6388 27.6887 32.8593 26.7436 32.9213 25.3596C32.9843 23.9725 32.999 23.5304 32.999 20C32.999 16.4696 32.9843 16.0265 32.9213 14.6404C32.8582 13.2563 32.6388 12.3108 32.3174 11.4849C31.9846 10.6301 31.5404 9.90555 30.818 9.18202C30.0956 8.4585 29.3699 8.01442 28.5161 7.68255C27.6887 7.36119 26.7436 7.14071 25.3607 7.07873C23.9746 7.0157 23.5314 7 20.001 7C16.4707 7 16.0272 7.01466 14.6404 7.07873Z" fill="url(#paint0_radial_1452_3592)"/>
<path d="M15.6674 20C15.6674 17.6069 17.6069 15.6663 20 15.6663C22.3931 15.6663 24.3337 17.6069 24.3337 20C24.3337 22.3931 22.3931 24.3337 20 24.3337C17.6069 24.3337 15.6674 22.3931 15.6674 20ZM13.3247 20C13.3247 23.6868 16.3132 26.6753 20 26.6753C23.6868 26.6753 26.6753 23.6868 26.6753 20C26.6753 16.3132 23.6868 13.3247 20 13.3247C16.3132 13.3247 13.3247 16.3132 13.3247 20ZM25.3796 13.06C25.3795 13.3685 25.4709 13.6702 25.6422 13.9268C25.8135 14.1834 26.057 14.3834 26.342 14.5016C26.6271 14.6198 26.9407 14.6508 27.2433 14.5907C27.546 14.5307 27.824 14.3822 28.0423 14.1641C28.2605 13.946 28.4092 13.6681 28.4695 13.3656C28.5298 13.063 28.4991 12.7493 28.3811 12.4642C28.2631 12.1791 28.0633 11.9354 27.8068 11.7639C27.5503 11.5923 27.2488 11.5007 26.9402 11.5006H26.9396C26.526 11.5008 26.1294 11.6651 25.837 11.9575C25.5445 12.2499 25.38 12.6464 25.3796 13.06ZM14.748 30.5817C13.4806 30.524 12.7917 30.3128 12.3338 30.1345C11.7269 29.8982 11.2938 29.6168 10.8385 29.1621C10.3832 28.7074 10.1014 28.2748 9.86614 27.6678C9.68767 27.2102 9.47655 26.5211 9.41894 25.2537C9.35591 23.8834 9.34333 23.4717 9.34333 20.0001C9.34333 16.5285 9.35695 16.118 9.41894 14.7465C9.47666 13.4791 9.68934 12.7913 9.86614 12.3324C10.1024 11.7254 10.3838 11.2924 10.8385 10.8371C11.2932 10.3818 11.7259 10.0999 12.3338 9.86468C12.7914 9.68622 13.4806 9.4751 14.748 9.41748C16.1183 9.35446 16.5299 9.34187 20 9.34187C23.4701 9.34187 23.8821 9.3555 25.2536 9.41748C26.521 9.4752 27.2088 9.68788 27.6677 9.86468C28.2747 10.0999 28.7077 10.3824 29.163 10.8371C29.6183 11.2918 29.8991 11.7254 30.1354 12.3324C30.3139 12.79 30.525 13.4791 30.5826 14.7465C30.6456 16.118 30.6582 16.5285 30.6582 20.0001C30.6582 23.4717 30.6456 23.8822 30.5826 25.2537C30.5249 26.5211 30.3127 27.21 30.1354 27.6678C29.8991 28.2748 29.6177 28.7078 29.163 29.1621C28.7083 29.6164 28.2747 29.8982 27.6677 30.1345C27.2101 30.313 26.521 30.5241 25.2536 30.5817C23.8833 30.6447 23.4716 30.6573 20 30.6573C16.5284 30.6573 16.1179 30.6447 14.748 30.5817ZM14.6404 7.07873C13.2564 7.14175 12.3108 7.36119 11.4849 7.68255C10.6296 8.01442 9.90555 8.45964 9.18202 9.18202C8.4585 9.90441 8.01442 10.6296 7.68255 11.4849C7.36119 12.3113 7.14175 13.2564 7.07873 14.6404C7.01466 16.0265 7 16.4696 7 20C7 23.5304 7.01466 23.9735 7.07873 25.3596C7.14175 26.7437 7.36119 27.6887 7.68255 28.5151C8.01442 29.3699 8.4586 30.0959 9.18202 30.818C9.90545 31.54 10.6296 31.9846 11.4849 32.3174C12.3123 32.6388 13.2564 32.8582 14.6404 32.9213C16.0272 32.9843 16.4696 33 20 33C23.5304 33 23.9735 32.9853 25.3596 32.9213C26.7437 32.8582 27.6887 32.6388 28.5151 32.3174C29.3699 31.9846 30.0944 31.5404 30.818 30.818C31.5415 30.0956 31.9846 29.3699 32.3174 28.5151C32.6388 27.6887 32.8593 26.7436 32.9213 25.3596C32.9843 23.9725 32.999 23.5304 32.999 20C32.999 16.4696 32.9843 16.0265 32.9213 14.6404C32.8582 13.2563 32.6388 12.3108 32.3174 11.4849C31.9846 10.6301 31.5404 9.90555 30.818 9.18202C30.0956 8.4585 29.3699 8.01442 28.5161 7.68255C27.6887 7.36119 26.7436 7.14071 25.3607 7.07873C23.9746 7.0157 23.5314 7 20.001 7C16.4707 7 16.0272 7.01466 14.6404 7.07873Z" fill="url(#paint1_radial_1452_3592)"/>
</g>
</g>
<defs>
<filter id="filter0_d_1452_3592" x="-4" y="0" width="48" height="48" filterUnits="userSpaceOnUse" color-interpolation-filters="sRGB">
<feFlood flood-opacity="0" result="BackgroundImageFix"/>
<feColorMatrix in="SourceAlpha" type="matrix" values="0 0 0 0 0 0 0 0 0 0 0 0 0 0 0 0 0 0 127 0" result="hardAlpha"/>
<feOffset dy="4"/>
<feGaussianBlur stdDeviation="2"/>
<feComposite in2="hardAlpha" operator="out"/>
<feColorMatrix type="matrix" values="0 0 0 0 0 0 0 0 0 0 0 0 0 0 0 0 0 0 0.25 0"/>
<feBlend mode="normal" in2="BackgroundImageFix" result="effect1_dropShadow_1452_3592"/>
<feBlend mode="normal" in="SourceGraphic" in2="effect1_dropShadow_1452_3592" result="shape"/>
</filter>
<radialGradient id="paint0_radial_1452_3592" cx="0" cy="0" r="1" gradientUnits="userSpaceOnUse" gradientTransform="translate(10.4543 33.1228) scale(33.9408 33.9408)">
<stop offset="0.09" stop-color="#FA8F21"/>
<stop offset="0.78" stop-color="#D82D7E"/>
</radialGradient>
<radialGradient id="paint1_radial_1452_3592" cx="0" cy="0" r="1" gradientUnits="userSpaceOnUse" gradientTransform="translate(22.7679 34.2876) scale(26.75)">
<stop offset="0.64" stop-color="#8C3AAA" stop-opacity="0"/>
<stop offset="1" stop-color="#8C3AAA"/>
</radialGradient>
<clipPath id="clip0_1452_3592">
<rect width="26" height="26" fill="white" transform="translate(7 7)"/>
</clipPath>
</defs>
</svg>
