<svg width="90" height="44" viewBox="0 0 90 44" fill="none" xmlns="http://www.w3.org/2000/svg">
<path d="M13.804 34.1422C11.5594 34.1422 9.51204 33.6859 7.66204 32.7732C5.83671 31.8606 4.38137 30.5039 3.29604 28.7032C2.21071 26.8779 1.66804 24.5962 1.66804 21.8582C1.66804 19.1696 2.22304 16.8879 3.33304 15.0132C4.44304 13.1139 5.89837 11.6709 7.69904 10.6842C9.52437 9.69757 11.51 9.20424 13.656 9.20424C15.432 9.20424 16.9737 9.52491 18.281 10.1662C19.5884 10.8076 20.6614 11.5476 21.5 12.3862L18.17 16.4562C17.578 15.9382 16.949 15.5189 16.283 15.1982C15.6417 14.8529 14.84 14.6802 13.878 14.6802C12.25 14.6802 10.8934 15.2969 9.80804 16.5302C8.72271 17.7636 8.18004 19.4656 8.18004 21.6362C8.18004 23.9056 8.68571 25.6446 9.69704 26.8532C10.733 28.0619 12.324 28.6662 14.47 28.6662C15.2594 28.6662 15.876 28.5182 16.32 28.2222V24.8922H12.768V19.7122H21.944V31.1822C21.1054 31.9962 19.9584 32.6992 18.503 33.2912C17.0724 33.8586 15.506 34.1422 13.804 34.1422Z" fill="white"/>
<path d="M79.804 43.1422C77.5594 43.1422 75.512 42.6859 73.662 41.7732C71.8367 40.8606 70.3814 39.5039 69.296 37.7032C68.2107 35.8779 67.668 33.5962 67.668 30.8582C67.668 28.1696 68.223 25.8879 69.333 24.0132C70.443 22.1139 71.8984 20.6709 73.699 19.6842C75.5244 18.6976 77.51 18.2042 79.656 18.2042C81.432 18.2042 82.9737 18.5249 84.281 19.1662C85.5884 19.8076 86.6614 20.5476 87.5 21.3862L84.17 25.4562C83.578 24.9382 82.949 24.5189 82.283 24.1982C81.6417 23.8529 80.84 23.6802 79.878 23.6802C78.25 23.6802 76.8934 24.2969 75.808 25.5302C74.7227 26.7636 74.18 28.4656 74.18 30.6362C74.18 32.9056 74.6857 34.6446 75.697 35.8532C76.733 37.0619 78.324 37.6662 80.47 37.6662C81.2594 37.6662 81.876 37.5182 82.32 37.2222V33.8922H78.768V28.7122H87.944V40.1822C87.1054 40.9962 85.9584 41.6992 84.503 42.2912C83.0724 42.8586 81.506 43.1422 79.804 43.1422Z" fill="white"/>
<path fill-rule="evenodd" clip-rule="evenodd" d="M46.2476 0.698242H40.6337V18.7873H24V24.4012H40.6337V33.1339H25.6634V38.7478H46.2475L46.2476 38.7477V24.4012H60.3861V41.8665H66L66 24.4012V18.7873L66 9.43082H60.3861V18.7873H46.2476V0.698242Z" fill="white"/>
</svg>
