<svg width="24" height="24" viewBox="0 0 24 24" fill="none" xmlns="http://www.w3.org/2000/svg">
<path d="M22.7869 16.5455C22.4236 15.1359 21.2869 14.0262 19.8355 13.7665C19.7675 13.7541 19.6992 13.7439 19.63 13.7354C17.4504 13.4714 15.7138 14.0497 14.7721 14.4826C14.2729 14.7116 13.9969 14.9001 13.9969 14.9001C13.4554 14.5875 12.9319 14.3516 12.4294 14.1785C12.2238 13.7008 11.9277 13.2611 11.5665 12.8862C11.1035 12.4051 10.5329 12.0298 9.90749 11.8153C9.18562 11.5675 8.5178 11.1022 8.01402 10.4808C5.70945 7.637 5.5312 4.95099 5.67217 3.46465C5.74683 2.6791 6.30428 2.11227 7.07695 2.03636C8.53879 1.89308 11.1806 2.07474 13.9776 4.41787C14.2809 4.6722 14.5482 4.96801 14.7717 5.29689C14.9932 5.62229 15.1685 5.97584 15.2901 6.34302C15.7125 7.61439 16.7658 8.66312 18.0213 9.06146L18.1308 9.09597C18.6916 9.27385 19.2248 9.58472 19.6795 10.004C21 11.222 23.4882 13.9341 22.7869 16.5455Z" stroke="#444444" stroke-miterlimit="10" stroke-linecap="round" stroke-linejoin="round"/>
<path d="M19.2727 13.2395C19.2136 13.2296 19.1541 13.2212 19.0945 13.2144C17.2044 13.0011 15.6984 13.4684 14.8818 13.8182C14.3318 12.662 15.426 11.7528 15.426 11.7528C15.426 11.7528 16.7959 10.2727 18.3437 11.7391C18.8169 12.1874 19.1032 12.7185 19.2727 13.2395Z" stroke="#444444" stroke-miterlimit="10" stroke-linecap="round" stroke-linejoin="round"/>
<path d="M9.09456 4.72859C8.69504 4.73711 8.37352 5.05863 8.36499 5.45815C8.34767 6.26803 8.48593 7.64136 9.46598 8.62146C10.9394 10.0949 12.2438 8.60741 12.2438 8.60741C12.2438 8.60741 13.7313 7.30307 12.2578 5.82955C11.2778 4.84952 9.90446 4.71126 9.09456 4.72859Z" stroke="#444444" stroke-miterlimit="10" stroke-linecap="round" stroke-linejoin="round"/>
<path d="M4.84555 15.2627C4.69072 15.2456 4.53829 15.2119 4.39103 15.1623C3.9253 15.005 3.48769 14.7763 3.11736 14.5472C2.63297 14.2476 2 14.5852 2 15.1438V16.4661C2 17.8017 2.59068 19.0799 3.63941 19.9413C8.68968 24.089 13.8486 20.6866 13.8486 20.6866C16.0053 21.9065 17.7282 22.0818 19.6349 21.6905C21.7874 21.2488 22.9091 19.4091 22.9091 17.5624C22.9091 15.6936 21.4818 14.104 19.5753 13.8829C16.1842 13.4896 13.8486 15.0163 13.8486 15.0163C11.6714 13.8139 9.78257 13.7752 8.36874 14.0912" stroke="#444444" stroke-miterlimit="10" stroke-linecap="round" stroke-linejoin="round"/>
<path d="M22.9091 17.432C19.8674 15.3109 16.9499 16.1627 15.4417 16.9747C15.2556 17.075 15.0521 17.1369 14.8648 17.2348C14.084 17.6426 13.4138 17.3337 13.1789 17.1954C13.0319 17.1088 12.8797 17.0316 12.7232 16.9641C10.6677 16.0786 9.66503 17.1374 6.84255 17.1374C3.85714 17.1374 2.90906 14.7273 2.90906 14.7273C2.90906 14.7273 3.01106 19.807 9.11663 20.1487C9.11663 20.1487 10.8811 20.3998 12.7413 19.519C13.3645 19.224 14.1182 18.9394 15.1726 19.4399C18.3011 20.9249 22.0095 18.918 22.9091 17.432Z" stroke="#444444" stroke-miterlimit="10" stroke-linecap="round" stroke-linejoin="round"/>
<path d="M18.3636 21.9985C18.3636 21.9985 18.3638 21.9994 18.3636 22" stroke="#444444" stroke-miterlimit="10" stroke-linecap="round" stroke-linejoin="round"/>
<path d="M9.27281 21.999C9.27281 21.999 9.27258 21.9995 9.27281 22" stroke="#444444" stroke-miterlimit="10" stroke-linecap="round" stroke-linejoin="round"/>
</svg>
