<svg width="25" height="24" viewBox="0 0 25 24" fill="none" xmlns="http://www.w3.org/2000/svg">
<g clip-path="url(#clip0_276_3405)">
<path d="M23.6129 0H22.0645C21.9619 0 21.8634 0.0407833 21.7908 0.113378C21.7182 0.185973 21.6774 0.284432 21.6774 0.387097V0.519871C21.6774 1.77561 21.2083 2.95974 20.3524 3.87097H20.0404C17.4368 3.87097 15.12 5.38142 14.0663 7.74193H12.2385C11.3315 7.74127 10.4426 7.99479 9.67241 8.47374C8.90226 8.95269 8.28176 9.63789 7.88129 10.4516C4.74968 10.4551 1.87742 12.0337 0.195871 14.6764C0.06791 14.8774 -3.91386e-05 15.1108 1.69129e-08 15.3492C1.69129e-08 15.6956 0.137806 16.0177 0.388258 16.2565C0.63871 16.4954 0.96929 16.6126 1.31303 16.6018L6.27987 16.3653C6.99964 16.3317 7.70144 16.1294 8.32861 15.7746C8.95578 15.4198 9.49074 14.9226 9.89032 14.323H10.3819C10.7899 14.323 11.191 14.2866 11.5839 14.2227C11.3499 14.6684 11.227 15.164 11.2258 15.6674C11.2258 15.8861 11.2525 16.1021 11.2978 16.313C11.0503 16.9005 10.6583 17.4158 10.1582 17.8111C10.1268 17.8095 10.0959 17.8064 10.0645 17.8064C9.46181 17.8064 8.89548 18.041 8.4689 18.4672L7.71329 19.2228C7.43348 19.5026 7.22297 19.844 7.09858 20.2196C6.16757 21.1329 5.46611 22.2537 5.05161 23.4902L5.0551 23.4914C5.03007 23.5623 5.02657 23.6391 5.04503 23.712C5.0669 23.7946 5.11547 23.8676 5.18318 23.9197C5.25089 23.9718 5.33393 24 5.41935 24H7.58632C10.2948 24 12.6914 22.2174 13.4814 19.6413C15.9314 18.5981 17.801 16.4594 18.5028 13.8859L18.5257 13.8015C19.3691 13.2861 20.0661 12.5629 20.5501 11.701C21.0342 10.8392 21.289 9.86766 21.2903 8.87922V5.98452L21.5137 5.7929C22.2939 5.12485 22.9202 4.29571 23.3494 3.36252C23.7786 2.42934 24.0005 1.41425 24 0.387097C24 0.284432 23.9592 0.185973 23.8866 0.113378C23.814 0.0407833 23.7156 0 23.6129 0ZM9.67742 13.5484C9.61062 13.5484 9.54497 13.5657 9.48684 13.5986C9.42871 13.6315 9.38008 13.6789 9.34568 13.7361C9.02186 14.2774 8.56911 14.7301 8.02782 15.0538C7.48653 15.3775 6.87352 15.5622 6.24348 15.5915L1.27665 15.8284C1.21181 15.8314 1.14704 15.8213 1.08624 15.7986C1.02544 15.7759 0.969872 15.7411 0.922905 15.6963C0.875938 15.6515 0.838544 15.5976 0.812984 15.5379C0.787423 15.4783 0.774227 15.4141 0.774194 15.3492C0.774194 15.3387 0.778064 15.3286 0.778452 15.3178L2.44684 14.3648C4.71666 13.0699 7.2845 12.3884 9.89768 12.3871C11.8463 12.3871 13.7563 11.9477 15.5044 11.1205C14.2657 12.6437 12.4065 13.5484 10.3819 13.5484H9.67742ZM16.0761 13.1923C15.8314 12.9128 15.5239 12.6953 15.1788 12.5578C15.8792 11.9568 16.461 11.2303 16.8945 10.4156C17.2969 10.3511 17.6957 10.2653 18.089 10.1586C17.457 11.1951 16.7856 12.2071 16.0761 13.1923ZM14.3617 13.164C14.6076 13.1709 14.8483 13.236 15.0643 13.3538C15.2803 13.4716 15.4653 13.6388 15.6043 13.8418C14.7101 15.0424 13.7594 16.2 12.7556 17.3106L12.7173 17.3528C12.4912 17.134 12.3112 16.8722 12.188 16.5827C12.0648 16.2932 12.0009 15.982 12 15.6674C12 15.1374 12.1823 14.6175 12.5133 14.2041L12.7239 13.9428C13.3 13.7521 13.8501 13.4905 14.3617 13.164ZM11.6706 17.2603C11.8123 17.5017 11.986 17.7229 12.187 17.9179C12.012 18.1022 11.8363 18.2853 11.6566 18.4645C11.4829 18.2919 11.2822 18.1488 11.0625 18.0406C11.293 17.8034 11.4969 17.5417 11.6706 17.2603ZM8.26103 19.7702L9.01664 19.0146C9.29524 18.7377 9.67174 18.5818 10.0645 18.5806C10.4555 18.5806 10.8228 18.7324 11.1019 19.0057C10.0875 19.9636 9.0034 20.8449 7.85845 21.6422C7.78271 21.4447 7.74324 21.2351 7.74194 21.0236C7.7413 20.7907 7.78686 20.5601 7.87596 20.3449C7.96506 20.1298 8.09594 19.9344 8.26103 19.7702ZM7.20348 22.0908C6.88051 22.303 6.55322 22.5084 6.22181 22.7071C6.44433 22.271 6.70908 21.8578 7.01226 21.4734C7.05019 21.6863 7.11252 21.8942 7.20348 22.0908ZM20.5161 8.87922C20.515 9.75886 20.2819 10.6227 19.8404 11.3834C19.3988 12.1442 18.7644 12.7751 18.0012 13.2124C17.9121 13.2635 17.8467 13.3479 17.8196 13.4466L17.7554 13.6823C17.1004 16.0839 15.329 18.0704 13.0169 18.9952C12.9613 19.0175 12.9116 19.0524 12.8718 19.0971C12.832 19.1419 12.8031 19.1952 12.7874 19.253C12.1498 21.5919 10.0111 23.2258 7.58632 23.2258H6.86168C9.22706 21.7775 11.3722 19.997 13.2314 17.9388L13.3293 17.8308C16.1647 14.6965 18.576 11.2033 20.5014 7.44077L20.5161 7.41252V8.87922ZM21.0097 5.20529L20.6512 5.51264C20.6126 5.54556 20.5809 5.58582 20.5579 5.6311L19.8124 7.08852C19.4528 7.79148 19.0699 8.48206 18.6759 9.16568C17.9993 9.40624 17.3005 9.57909 16.5898 9.68168C16.5363 9.68935 16.485 9.70821 16.4392 9.73703C14.4778 10.9634 12.211 11.6134 9.89768 11.6129C7.1499 11.6142 4.44981 12.331 2.06323 13.6928L1.84258 13.8186C3.40142 12.1734 5.56877 11.2258 7.89135 11.2258H8.12903C8.28387 11.2258 8.424 11.1337 8.48477 10.9912C8.79912 10.2563 9.32247 9.62986 9.98982 9.18982C10.6572 8.74979 11.4391 8.51552 12.2385 8.51613H14.3226C14.4809 8.51613 14.623 8.41974 14.6822 8.27264C15.1074 7.19961 15.8461 6.27958 16.8018 5.63252C17.7576 4.98546 18.8862 4.64139 20.0404 4.64516H20.5161C20.6187 4.64516 20.7174 4.60452 20.7898 4.53174C21.795 3.53222 22.3865 2.19049 22.4462 0.774193H23.2142C23.1627 1.62288 22.941 2.45254 22.5623 3.21379C22.1835 3.97503 21.6555 4.6523 21.0097 5.20529Z" fill="#444444"/>
</g>
<defs>
<clipPath id="clip0_276_3405">
<rect width="24" height="24" fill="white" transform="translate(0.142944)"/>
</clipPath>
</defs>
</svg>
