<svg width="24" height="24" viewBox="0 0 24 24" fill="none" xmlns="http://www.w3.org/2000/svg">
<path d="M16.5514 10.0566C16.5588 9.89009 16.5745 9.72402 16.5985 9.55905L16.8047 8.15495H12.9987L13.2049 9.55905C13.2403 9.8009 13.258 10.045 13.258 10.2895V13.707C13.258 13.9521 13.2402 14.1965 13.2049 14.4371L12.9987 15.8412H16.8047L16.5985 14.4371C16.5871 14.3582 16.5777 14.2791 16.5702 14.1998" stroke="#444444" stroke-miterlimit="10" stroke-linecap="round" stroke-linejoin="round"/>
<path d="M10.7702 14.4371C10.7348 14.1952 10.7171 13.9511 10.7171 13.7067V10.2893C10.7171 10.0442 10.7349 9.79966 10.7702 9.55909L10.9764 8.15495H7.17041L7.37661 9.55909C7.41201 9.80095 7.42976 10.0451 7.42972 10.2895V13.707C7.42974 13.9513 7.41199 14.1953 7.37661 14.4371L7.17041 15.8412H10.9764L10.7702 14.4371Z" stroke="#444444" stroke-miterlimit="10" stroke-linecap="round" stroke-linejoin="round"/>
<path d="M10.7702 6.75083C10.7348 6.50897 10.7171 6.26486 10.7171 6.02042V2.603C10.7171 2.35789 10.7349 2.11339 10.7702 1.87283L10.9764 0.468687H7.17041L7.37661 1.87283C7.41201 2.11469 7.42976 2.3588 7.42972 2.60323V6.0208C7.42974 6.26511 7.41199 6.50909 7.37661 6.75083L7.17041 8.15497H10.9764L10.7702 6.75083Z" stroke="#444444" stroke-miterlimit="10" stroke-linecap="round" stroke-linejoin="round"/>
<path d="M16.5985 22.1233C16.563 21.8815 16.5453 21.6373 16.5454 21.3929V17.9755C16.5454 17.7304 16.5632 17.4859 16.5985 17.2453L16.8046 15.8412H12.9987L13.2049 17.2453C13.2403 17.4872 13.258 17.7313 13.258 17.9757V21.3932C13.258 21.6376 13.2402 21.8816 13.2049 22.1233L12.9987 23.5274H16.8046L16.5985 22.1233Z" stroke="#444444" stroke-miterlimit="10" stroke-linecap="round" stroke-linejoin="round"/>
<path d="M10.7702 22.1233C10.7348 21.8815 10.7171 21.6373 10.7171 21.3929V17.9755C10.7171 17.7304 10.7349 17.4859 10.7702 17.2453L10.9764 15.8412H7.17041L7.37661 17.2453C7.41201 17.4872 7.42976 17.7313 7.42972 17.9757V21.3932C7.42974 21.6376 7.41199 21.8816 7.37661 22.1233L7.17041 23.5274H10.9764L10.7702 22.1233Z" stroke="#444444" stroke-miterlimit="10" stroke-linecap="round" stroke-linejoin="round"/>
<path d="M7.17029 15.8412L0.582764 8.15495C0.582764 8.15495 7.66867 7.60628 7.17029 15.8412Z" stroke="#444444" stroke-miterlimit="10" stroke-linecap="round" stroke-linejoin="round"/>
<path d="M16.8296 23.5312L23.4171 15.845C23.4171 15.845 16.3312 15.2963 16.8296 23.5312Z" stroke="#444444" stroke-miterlimit="10" stroke-linecap="round" stroke-linejoin="round"/>
</svg>
