<svg width="20" height="24" viewBox="0 0 20 24" fill="none" xmlns="http://www.w3.org/2000/svg">
<path d="M10.0146 13.9895V24M10.0262 4.57764e-05V11.154" stroke="#444444" stroke-miterlimit="22.926"/>
<path d="M10.0261 2.91888L11.4945 0.679619" stroke="#444444" stroke-miterlimit="22.926"/>
<path d="M10.0261 2.91888L12.0335 2.48431" stroke="#444444" stroke-miterlimit="22.926"/>
<path d="M10.026 2.91888L8.55762 0.679619" stroke="#444444" stroke-miterlimit="22.926"/>
<path d="M10.026 2.91888L8.01855 2.48431" stroke="#444444" stroke-miterlimit="22.926"/>
<path d="M15.3113 20.581C16.0041 20.7172 16.837 20.9347 17.8695 21.2287C13.2339 16.8171 12.0221 18.3747 10.0146 21.046M13.9131 20.4126C14.1284 20.4153 14.3609 20.4332 14.6142 20.4658M10.0146 23.0453C11.3694 21.513 12.0631 20.6839 13.2048 20.4693" stroke="#444444" stroke-miterlimit="22.926"/>
<path d="M10.0262 21.059C7.50307 18.2053 7.23288 17.7928 2.13049 19.2458C6.7661 14.8342 8.0187 16.4399 10.0262 19.1113" stroke="#444444" stroke-miterlimit="22.926"/>
<path d="M8.37369 9.1369C9.91892 10.4662 11.2064 12.663 10.0147 13.9895C7.53247 14.6459 5.78708 9.9049 6.3741 8.03412C6.80596 8.10795 7.31225 8.351 7.81902 8.705" stroke="#444444" stroke-miterlimit="22.926"/>
<path d="M10.0146 17.2675C10.6832 15.538 12.3472 14.3576 13.6017 14.0973C13.7826 15.2399 13.5174 17.2924 12.4282 18.6323" stroke="#444444" stroke-miterlimit="22.926"/>
<path d="M7.94944 13.2731C4.95759 12.2559 3.59128 12.9566 2.26233 10.396C4.29638 10.35 5.40216 10.883 7.94944 13.2731Z" stroke="#444444" stroke-miterlimit="22.926"/>
<path d="M10.8655 7.53309C13.6917 7.1767 14.8039 5.71664 15.2487 4.22044C13.7682 4.94569 11.6425 5.18011 10.8655 7.53309ZM10.8655 7.53309C10.4535 8.04328 10.3375 8.30602 10.0261 9.01172" stroke="#444444" stroke-miterlimit="22.926"/>
<path d="M10.0146 13.9894C12.8939 10.7567 14.5572 10.5363 17.1772 12.4006C15.6039 8.55832 12.7572 8.78004 10.0262 11.154" stroke="#444444" stroke-miterlimit="22.926"/>
<path d="M10.0262 7.15338C8.24278 5.15107 7.01124 4.69385 5.0813 5.37607C6.88449 2.84163 8.30522 3.78738 10.0262 5.32371" stroke="#444444" stroke-miterlimit="22.926"/>
<path d="M8.63782 11.7372L8.27112 11.1373M11.4717 17.4179L11.8514 16.8261" stroke="#444444" stroke-miterlimit="2.613"/>
</svg>
