<svg width="24" height="24" viewBox="0 0 24 24" fill="none" xmlns="http://www.w3.org/2000/svg">
<path d="M13.125 20.4346V23.5312H10.875V20.4346" stroke="#444444" stroke-miterlimit="10" stroke-linecap="round" stroke-linejoin="round"/>
<path d="M7.37465 3.96893C5.93643 3.84433 4.45513 4.33202 3.35446 5.43269C1.86079 6.92636 1.49568 9.12086 2.25843 10.9575" stroke="#444444" stroke-miterlimit="10" stroke-linecap="round" stroke-linejoin="round"/>
<path d="M21.7416 10.9575C22.5043 9.12086 22.1392 6.92636 20.6456 5.43269C19.5449 4.33202 18.0636 3.84433 16.6254 3.96893" stroke="#444444" stroke-miterlimit="10" stroke-linecap="round" stroke-linejoin="round"/>
<path d="M7.03458 19.8102C6.57362 19.9417 6.09656 20.0082 5.61722 20.0077C2.77378 20.0077 0.46875 17.7027 0.46875 14.8593C0.46875 12.0159 2.77378 9.71086 5.61722 9.71086" stroke="#444444" stroke-miterlimit="10" stroke-linecap="round" stroke-linejoin="round"/>
<path d="M9.46838 15.3702C9.46838 13.4961 10.4866 11.8599 12.0001 10.9844C13.5135 11.8599 14.5317 13.4961 14.5317 15.3702" stroke="#444444" stroke-miterlimit="10" stroke-linecap="round" stroke-linejoin="round"/>
<path d="M19.5965 15.3701C18.0816 14.4972 16.1555 14.4335 14.5325 15.3705C12.9095 16.3076 12.0016 18.0075 12.0001 19.7559C13.515 20.6288 15.4411 20.6925 17.0642 19.7555C18.6872 18.8184 19.595 17.1185 19.5965 15.3701Z" stroke="#444444" stroke-miterlimit="10" stroke-linecap="round" stroke-linejoin="round"/>
<path d="M4.40369 15.3701C5.91859 14.4972 7.84469 14.4335 9.46773 15.3705C11.0908 16.3076 11.9986 18.0075 12.0001 19.7559C10.4852 20.6288 8.55911 20.6925 6.93606 19.7555C5.31301 18.8184 4.40519 17.1185 4.40369 15.3701Z" stroke="#444444" stroke-miterlimit="10" stroke-linecap="round" stroke-linejoin="round"/>
<path d="M9.94186 0.930656C8.31806 1.70156 7.19531 3.35639 7.19531 5.27344" stroke="#444444" stroke-miterlimit="10" stroke-linecap="round" stroke-linejoin="round"/>
<path d="M16.8047 5.27344C16.8047 3.35639 15.6819 1.70156 14.0581 0.930609" stroke="#444444" stroke-miterlimit="10" stroke-linecap="round" stroke-linejoin="round"/>
<path d="M16.9656 19.8103C17.4265 19.9417 17.9035 20.0082 18.3828 20.0078C21.2262 20.0078 23.5313 17.7028 23.5313 14.8594C23.5313 12.016 21.2262 9.71092 18.3828 9.71092" stroke="#444444" stroke-miterlimit="10" stroke-linecap="round" stroke-linejoin="round"/>
</svg>
