<svg width="24" height="24" viewBox="0 0 24 24" fill="none" xmlns="http://www.w3.org/2000/svg">
<path d="M12.3294 3.35089L10.3565 1.28551C10.2282 1.15128 10.0625 1.05883 9.88091 1.02021C9.69934 0.981586 9.51033 0.998591 9.33857 1.06901C7.16827 1.95746 -0.0804715 5.41477 2.57834 11.0469" stroke="#444444" stroke-miterlimit="10" stroke-linecap="round" stroke-linejoin="round"/>
<path d="M10.4603 18.9411C11.0643 18.8115 11.54 18.5965 11.9142 18.3312" stroke="#444444" stroke-miterlimit="10" stroke-linecap="round" stroke-linejoin="round"/>
<path d="M12.9138 17.1243C13.2643 16.3654 13.2746 15.579 13.2468 15.1613C13.2374 15.0199 13.0938 14.9302 12.9609 14.9796C12.1959 15.2639 11.3331 14.9008 10.3049 15.7033C10.0191 15.9264 9.75525 16.0712 9.5202 16.1629" stroke="#444444" stroke-miterlimit="10" stroke-linecap="round" stroke-linejoin="round"/>
<path d="M10.3623 19.1301C11.1081 20.2289 10.7922 20.9379 10.853 21.6365C10.886 22.0154 11.0909 22.3849 11.2622 22.6339C11.3642 22.7821 11.265 22.9827 11.0855 22.9935C7.93651 23.1829 6.0878 19.2043 5.6748 18.2068" stroke="#444444" stroke-miterlimit="10" stroke-linecap="round" stroke-linejoin="round"/>
<path d="M17.1035 4.25788C11.6885 1.66521 2.55694 5.03466 2.57859 11.8716C2.58125 12.7061 2.68018 13.4521 2.85246 14.1198" stroke="#444444" stroke-miterlimit="10" stroke-linecap="round" stroke-linejoin="round"/>
<path d="M9.05133 13.9761C10.1878 11.842 13.0487 12.1721 13.0487 12.1721C15.9616 15.4789 20.9379 13.064 22.0058 12.4877C22.0711 12.4526 22.1266 12.4016 22.1671 12.3394C22.2075 12.2773 22.2317 12.2059 22.2374 12.1319C22.3076 11.1967 22.2811 7.72381 18.4512 5.05894" stroke="#444444" stroke-miterlimit="10" stroke-linecap="round" stroke-linejoin="round"/>
<path d="M3.4007 15.584C4.74628 18.2383 7.42093 19.2119 8.93743 19.5592C9.57401 19.705 10.2273 19.3956 10.5176 18.8106C10.6433 18.5572 10.5535 18.2506 10.3115 18.1043C10.0514 17.947 9.71508 17.7078 9.41288 17.3811" stroke="#444444" stroke-miterlimit="10" stroke-linecap="round" stroke-linejoin="round"/>
<path d="M13.0486 12.1721C13.0486 12.1721 11.6132 9.63261 13.5871 7.55837" stroke="#444444" stroke-miterlimit="10" stroke-linecap="round" stroke-linejoin="round"/>
<path d="M8.71857 10.7988C8.71857 11.0857 8.95579 11.3162 9.24254 11.3068C10.6272 11.2612 12.6493 11.0271 12.6493 8.88427C12.6493 6.74014 10.6271 6.50704 9.24245 6.46171C8.9557 6.45237 8.71857 6.68282 8.71857 6.9697V10.7988Z" stroke="#444444" stroke-miterlimit="10" stroke-linecap="round" stroke-linejoin="round"/>
<path d="M9.95118 8.15698H8.85468" stroke="#444444" stroke-miterlimit="10" stroke-linecap="round" stroke-linejoin="round"/>
<path d="M10.9163 9.3111H8.85461" stroke="#444444" stroke-miterlimit="10" stroke-linecap="round" stroke-linejoin="round"/>
<path d="M7.62156 13.5185C7.62156 13.5185 7.00981 16.2396 8.85462 17.4663L9.22212 17.3872C9.55079 17.3164 9.73816 16.9686 9.61608 16.6554C9.4106 16.1284 9.18073 15.3201 9.29515 14.536C9.33402 14.2699 9.17763 14.0142 8.92138 13.9325L7.62156 13.5185ZM7.62156 13.5185C7.62156 13.5185 7.7108 13.0743 8.02673 12.6301" stroke="#444444" stroke-miterlimit="10" stroke-linecap="round" stroke-linejoin="round"/>
<path d="M18.9341 8.15507C18.9341 8.64332 18.5383 9.03918 18.05 9.03918C17.5618 9.03918 17.166 8.64332 17.166 8.15507C17.166 7.66682 17.5618 7.27095 18.05 7.27095C18.5383 7.27095 18.9341 7.66682 18.9341 8.15507Z" stroke="#444444" stroke-miterlimit="10" stroke-linecap="round" stroke-linejoin="round"/>
<path d="M8.85468 2.91784L9.88553 3.78394" stroke="#444444" stroke-miterlimit="10" stroke-linecap="round" stroke-linejoin="round"/>
<path d="M8.02679 3.784L8.35303 4.09851" stroke="#444444" stroke-miterlimit="10" stroke-linecap="round" stroke-linejoin="round"/>
</svg>
