<svg width="24" height="24" viewBox="0 0 24 24" fill="none" xmlns="http://www.w3.org/2000/svg">
<g clip-path="url(#clip0_276_3408)">
<path d="M23.658 22.8622C22.0461 22.3887 20.4991 21.7719 19.0262 21.0175C19.3502 20.7294 19.6322 20.3873 19.8574 20.0053C19.9897 19.7809 19.9105 19.4942 19.6807 19.3651C19.4508 19.236 19.1572 19.3132 19.0249 19.5376C18.8124 19.8982 18.5369 20.2121 18.218 20.459C17.452 19.8247 16.9976 18.8149 17.0154 17.7484C17.0333 16.682 17.5211 15.6872 18.3078 15.0776C18.5895 15.3109 18.8348 15.5991 19.0268 15.9241C19.1593 16.1484 19.453 16.2253 19.6828 16.096C19.9125 15.9667 19.9914 15.68 19.8589 15.4557C19.5377 14.9121 19.0978 14.4462 18.5868 14.1087C18.5095 14.0577 18.4187 14.0297 18.3254 14.0282C18.2322 14.0268 18.1405 14.0518 18.0616 14.1004C17.7293 14.3048 17.4306 14.5579 17.1711 14.8482C16.9604 13.6969 16.3093 12.6668 15.3606 12.0401C15.2833 11.9891 15.1925 11.9611 15.0993 11.9597C15.006 11.9582 14.9143 11.9832 14.8354 12.0318C14.7559 12.0808 14.6782 12.1326 14.6026 12.187C14.6063 11.0977 14.2136 10.0436 13.4854 9.27592C13.4221 9.20909 13.3401 9.16172 13.2497 9.13961C13.1592 9.1175 13.064 9.1216 12.9759 9.15141C12.7668 9.22231 12.5641 9.31017 12.37 9.41407C12.5629 8.28576 12.3188 7.12984 11.6795 6.23574C11.6915 4.99943 11.8927 3.78425 12.2792 2.62196C12.3611 2.37571 12.2229 2.11127 11.9706 2.03135C11.7183 1.95142 11.4474 2.08629 11.3656 2.33254C10.9692 3.52464 10.7536 4.7678 10.7223 6.03252C10.0596 6.25852 9.4577 6.65595 8.97039 7.17494C8.94838 7.01591 8.91789 6.85811 8.87905 6.70217C8.52601 5.29208 7.51109 4.12834 6.21504 3.63603C5.68781 2.61891 5.38074 1.54358 5.30308 0.436838C5.28498 0.17854 5.05537 -0.0167067 4.79113 0.00120073C4.52652 0.0188737 4.32673 0.242622 4.34484 0.50092C4.43008 1.71581 4.76222 2.89526 5.33233 4.0103C4.544 5.01916 4.25887 6.40712 4.58895 7.72562C4.70039 8.17055 4.8791 8.5968 5.1192 8.99034C4.2679 8.86981 3.40407 8.98115 2.65012 9.31928C2.01825 8.4804 1.43311 7.54476 0.908869 6.5336C0.789094 6.30259 0.500126 6.21014 0.263505 6.32701C0.0268367 6.44392 -0.0679172 6.72594 0.0518578 6.95696C0.638871 8.08911 1.30027 9.13275 2.01811 10.0605C2.23403 11.4224 3.20702 12.6528 4.57156 13.282C4.83382 13.4028 5.1069 13.4998 5.38737 13.5717C5.05556 13.7359 4.74782 13.9414 4.47527 14.1864C4.40666 14.2481 4.35795 14.328 4.33507 14.4163C4.3122 14.5045 4.31616 14.5974 4.34647 14.6835C4.81212 16.0068 6.02385 17.0565 7.50869 17.4231C7.63766 17.4548 7.76794 17.4812 7.89919 17.5021C7.87192 17.5251 7.84499 17.5485 7.81841 17.5723C7.7498 17.634 7.70108 17.7138 7.67821 17.8021C7.65533 17.8904 7.65929 17.9833 7.6896 18.0694C8.1553 19.3927 9.36703 20.4424 10.8519 20.809C11.1957 20.8937 11.5481 20.9404 11.9026 20.9482C11.5325 21.3137 11.234 21.7396 11.0316 22.2084C10.9954 22.2923 10.985 22.3847 11.0017 22.4743C11.0183 22.5639 11.0614 22.6468 11.1256 22.7129C11.9272 23.5385 13.1006 24.0001 14.3212 24.0001C14.602 24.0001 14.8853 23.9756 15.1671 23.9256C16.5432 23.6813 17.7313 22.8534 18.351 21.7295C19.9462 22.5656 21.6266 23.2446 23.3812 23.76C23.4274 23.7736 23.474 23.7801 23.5198 23.7801C23.7262 23.7801 23.917 23.6491 23.9795 23.4462C24.0559 23.1983 23.912 22.9368 23.658 22.8622ZM12.9343 16.7095C12.7229 16.5095 12.5149 16.3061 12.3105 16.0993C12.4915 15.9999 12.6648 15.8874 12.8288 15.7629C12.8305 16.0811 12.8658 16.3983 12.9343 16.7095ZM9.59779 12.8526C9.76973 12.7861 9.9369 12.7083 10.0982 12.6199C10.0516 12.8973 10.0311 13.1782 10.0369 13.4593C9.8875 13.2591 9.74111 13.0569 9.59779 12.8526ZM15.7291 19.0099C15.8712 18.8889 16.0047 18.7586 16.1287 18.6199C16.1804 18.9035 16.2595 19.1817 16.3648 19.4508C16.1507 19.3069 15.9388 19.16 15.7291 19.0099ZM15.0817 13.009C15.8478 13.6434 16.3021 14.6532 16.2843 15.7197C16.2665 16.7861 15.7786 17.7809 14.9918 18.3906C14.2258 17.7562 13.7715 16.7464 13.7893 15.68C13.8071 14.6135 14.295 13.6186 15.0817 13.009ZM12.9886 10.1577C13.5872 10.9451 13.7949 12.0293 13.5296 13.064C13.2642 14.0987 12.5578 14.9595 11.6498 15.3789C11.0513 14.5914 10.8436 13.5072 11.1089 12.4726C11.3742 11.4379 12.0806 10.5771 12.9886 10.1577ZM10.9986 6.93122C11.5198 7.76945 11.6236 8.8677 11.2612 9.87389C10.8988 10.8801 10.1137 11.6733 9.16979 12.0088C8.64862 11.1706 8.54474 10.0723 8.90714 9.06604C9.26954 8.05986 10.0547 7.26668 10.9986 6.93122ZM7.94606 6.9248C8.20544 7.9609 7.99154 9.04392 7.38858 9.82809C6.48302 9.40375 5.78146 8.53914 5.52208 7.50304C5.2627 6.46694 5.4766 5.38397 6.0796 4.59974C6.98512 5.02408 7.68663 5.8887 7.94606 6.9248ZM3.02208 10.1836C3.9299 9.76396 5.05979 9.77629 6.04781 10.2319C7.03579 10.6876 7.76313 11.5316 8.00768 12.4827C7.09981 12.9022 5.96992 12.8899 4.98194 12.4343C3.99396 11.9787 3.26662 11.1346 3.02208 10.1836ZM5.37748 14.6736C6.18569 14.0914 7.29685 13.8913 8.35619 14.1529C9.41554 14.4144 10.2956 15.1061 10.7231 15.9934C9.91481 16.5757 8.80355 16.7757 7.7443 16.5143C6.68496 16.2526 5.80485 15.5609 5.37748 14.6736ZM8.72056 18.0595C9.52883 17.4772 10.64 17.2771 11.6993 17.5387C12.7586 17.8003 13.6387 18.4919 14.0662 19.3793C13.2579 19.9615 12.1467 20.1616 11.0874 19.9001C10.0281 19.6385 9.14799 18.9468 8.72056 18.0595ZM14.9952 23.0032C13.9203 23.1939 12.8255 22.9209 12.0595 22.2865C12.5476 21.4295 13.4736 20.7976 14.5487 20.6067C15.6238 20.4159 16.7185 20.689 17.4845 21.3234C16.9964 22.1804 16.0703 22.8123 14.9952 23.0032Z" fill="#444444"/>
<path d="M19.9914 18.1997C20.2567 18.1997 20.4717 17.9898 20.4717 17.7309C20.4717 17.472 20.2567 17.2621 19.9914 17.2621C19.7262 17.2621 19.5112 17.472 19.5112 17.7309C19.5112 17.9898 19.7262 18.1997 19.9914 18.1997Z" fill="#444444"/>
</g>
<defs>
<clipPath id="clip0_276_3408">
<rect width="24" height="24" fill="white"/>
</clipPath>
</defs>
</svg>
