<svg width="24" height="24" viewBox="0 0 24 24" fill="none" xmlns="http://www.w3.org/2000/svg">
<path d="M19.4079 15.5253L19.4082 4.89417C19.4082 2.38533 17.3743 0.35147 14.8655 0.35147C12.3566 0.35147 10.3228 2.38533 10.3228 4.89417V13.3435" stroke="#444444" stroke-miterlimit="10" stroke-linecap="round" stroke-linejoin="round"/>
<path d="M8.12553 21.522C8.18327 22.0769 8.22886 22.6331 8.26227 23.19C8.27783 23.4472 8.49017 23.6484 8.74794 23.6484H11.2023L11.1508 22.5903C10.9239 17.9333 9.03959 13.4957 5.78699 10.1552C4.68368 9.02174 3.44399 8.02958 2.09633 7.20145C2.01154 7.14941 1.91136 7.1283 1.81278 7.14171C1.7142 7.15511 1.6233 7.20221 1.55549 7.275L1.55019 7.28072C1.47415 7.36228 1.43268 7.47015 1.43451 7.58164C1.43633 7.69314 1.48131 7.79958 1.55999 7.87861C3.32422 9.65184 5.6412 12.3075 6.61414 14.8527C7.13342 16.2111 7.59795 17.851 7.91436 19.8883" stroke="#444444" stroke-miterlimit="10" stroke-linecap="round" stroke-linejoin="round"/>
<path d="M11.2023 23.6484H13.1573C13.3829 23.6484 13.5663 23.466 13.5678 23.2405C13.6519 10.6506 14.1988 5.44692 14.8292 3.03174C14.8903 2.7975 14.745 2.55956 14.5085 2.50781L14.4976 2.50542C14.3221 2.46703 14.1422 2.54339 14.0459 2.69503C11.599 6.5513 10.3228 10.7765 10.3228 16.5523V17.8433" stroke="#444444" stroke-miterlimit="10" stroke-linecap="round" stroke-linejoin="round"/>
<path d="M10.431 13.7719C9.88645 11.4943 9.09755 10.14 8.5568 9.42369C8.36156 9.16513 7.94878 9.30599 7.94995 9.63004C7.95267 10.3859 7.96702 11.5707 8.01947 12.9358" stroke="#444444" stroke-miterlimit="10" stroke-linecap="round" stroke-linejoin="round"/>
<path d="M18.8861 7.4278C18.2457 8.06811 17.26 8.19805 16.6957 8.21572C16.4465 8.22355 16.243 8.02002 16.2508 7.77083C16.2685 7.20655 16.3984 6.22082 17.0387 5.58051C17.5937 5.0256 18.249 5.0129 18.6932 5.09591C18.8613 5.12722 19.016 5.20869 19.137 5.32961C19.2579 5.45053 19.3394 5.60523 19.3707 5.77335C19.4536 6.21763 19.441 6.8729 18.8861 7.4278Z" stroke="#444444" stroke-miterlimit="10" stroke-linecap="round" stroke-linejoin="round"/>
<path d="M21.2223 5.19894C20.8236 5.02737 20.4247 5.03961 20.1231 5.09595C19.9549 5.12725 19.8002 5.20872 19.6793 5.32964C19.5584 5.45057 19.4769 5.60527 19.4456 5.77339C19.3626 6.21762 19.3753 6.87293 19.9302 7.42784C20.5705 8.06815 21.5563 8.19804 22.1205 8.21572C22.1795 8.21763 22.2382 8.20743 22.293 8.18575C22.3479 8.16407 22.3977 8.13137 22.4393 8.08967C22.481 8.04798 22.5137 7.99817 22.5354 7.94334C22.5571 7.88851 22.5673 7.82981 22.5654 7.77087C22.5617 7.65204 22.553 7.51447 22.5356 7.36545C22.5022 7.079 22.4366 6.75008 22.3126 6.42936" stroke="#444444" stroke-miterlimit="10" stroke-linecap="round" stroke-linejoin="round"/>
<path d="M16.7904 8.21184C16.3632 8.83096 16.2659 9.62043 16.2508 10.1025C16.2489 10.1614 16.2591 10.2201 16.2808 10.275C16.3025 10.3298 16.3352 10.3796 16.3769 10.4213C16.4186 10.463 16.4684 10.4957 16.5232 10.5174C16.5781 10.5391 16.6367 10.5493 16.6957 10.5474C17.26 10.5297 18.2457 10.3998 18.8861 9.75946C19.2819 9.3636 19.4017 8.9167 19.4078 8.53171L19.4079 8.53068C19.4082 8.50959 19.4082 8.48864 19.4079 8.46792V8.46182L19.4084 8.46792C19.4081 8.48884 19.4081 8.50976 19.4084 8.53068V8.53171C19.4144 8.9167 19.5343 9.3636 19.9301 9.75946C20.5705 10.3998 21.5562 10.5297 22.1205 10.5474C22.1795 10.5493 22.2381 10.5391 22.293 10.5174C22.3478 10.4957 22.3976 10.463 22.4393 10.4213C22.481 10.3796 22.5137 10.3298 22.5354 10.275C22.557 10.2201 22.5673 10.1614 22.5654 10.1025C22.5503 9.62043 22.453 8.83096 22.0258 8.21184" stroke="#444444" stroke-miterlimit="10" stroke-linecap="round" stroke-linejoin="round"/>
<path d="M16.7904 10.5433C16.3632 11.1624 16.2659 11.952 16.2508 12.434C16.2489 12.493 16.2591 12.5516 16.2808 12.6065C16.3025 12.6613 16.3352 12.7111 16.3769 12.7528C16.4186 12.7945 16.4684 12.8272 16.5232 12.8489C16.5781 12.8706 16.6367 12.8808 16.6957 12.8789C17.26 12.8612 18.2457 12.7313 18.8861 12.091C19.2819 11.6951 19.4017 11.2482 19.4078 10.8632L19.4079 10.8622C19.4079 10.8619 19.4083 10.861 19.4084 10.8607V10.8632H19.4084C19.4145 11.2482 19.5343 11.6951 19.9301 12.091C20.5705 12.7313 21.5562 12.8612 22.1205 12.8789C22.1794 12.8808 22.2381 12.8705 22.293 12.8489C22.3478 12.8272 22.3976 12.7945 22.4393 12.7528C22.481 12.7111 22.5137 12.6613 22.5354 12.6065C22.557 12.5516 22.5673 12.493 22.5654 12.434C22.5503 11.952 22.453 11.1624 22.0258 10.5433" stroke="#444444" stroke-miterlimit="10" stroke-linecap="round" stroke-linejoin="round"/>
<path d="M16.7904 12.875C16.3632 13.4942 16.2659 14.2836 16.2508 14.7657C16.2489 14.8246 16.2591 14.8833 16.2808 14.9381C16.3025 14.993 16.3352 15.0428 16.3769 15.0845C16.4186 15.1262 16.4684 15.1589 16.5232 15.1805C16.5781 15.2022 16.6367 15.2124 16.6957 15.2105C17.26 15.1929 18.2457 15.063 18.8861 14.4227C19.2819 14.0268 19.4017 13.5799 19.4078 13.1949L19.4079 13.193C19.4079 13.1933 19.4084 13.1937 19.4084 13.1939V13.1949C19.4144 13.5799 19.5343 14.0268 19.9301 14.4227C20.5705 15.063 21.5562 15.1929 22.1205 15.2105C22.1795 15.2124 22.2381 15.2022 22.293 15.1805C22.3478 15.1588 22.3976 15.1261 22.4393 15.0845C22.481 15.0428 22.5137 14.993 22.5354 14.9381C22.5571 14.8833 22.5673 14.8246 22.5654 14.7657C22.5503 14.2836 22.453 13.4942 22.0258 12.875" stroke="#444444" stroke-miterlimit="10" stroke-linecap="round" stroke-linejoin="round"/>
<path d="M16.7904 15.2067C16.3632 15.8258 16.2659 16.6153 16.2508 17.0973C16.2489 17.1562 16.2591 17.2149 16.2808 17.2698C16.3025 17.3246 16.3352 17.3744 16.3769 17.4161C16.4186 17.4578 16.4684 17.4905 16.5232 17.5122C16.5781 17.5339 16.6367 17.5441 16.6957 17.5422C17.26 17.5245 18.2457 17.3946 18.8861 16.7543C19.2819 16.3584 19.4017 15.9115 19.4078 15.5265L19.4079 15.5255C19.4079 15.5253 19.4083 15.5244 19.4084 15.5241V15.5265C19.4144 15.9115 19.5343 16.3584 19.9301 16.7543C20.5705 17.3946 21.5562 17.5245 22.1205 17.5422C22.1795 17.5441 22.2381 17.5339 22.293 17.5122C22.3478 17.4905 22.3976 17.4578 22.4393 17.4161C22.481 17.3744 22.5137 17.3246 22.5354 17.2698C22.557 17.2149 22.5673 17.1562 22.5654 17.0973C22.5503 16.6153 22.453 15.8258 22.0258 15.2067" stroke="#444444" stroke-miterlimit="10" stroke-linecap="round" stroke-linejoin="round"/>
<path d="M18.1628 17.2371C18.1244 17.4293 18.1021 17.6151 18.1021 17.7884C18.1021 18.694 18.7074 19.483 19.0939 19.8944C19.1342 19.9374 19.1829 19.9717 19.237 19.9951C19.2911 20.0186 19.3494 20.0306 19.4083 20.0306C19.4672 20.0306 19.5256 20.0186 19.5796 19.9951C19.6337 19.9717 19.6824 19.9374 19.7227 19.8944C20.1092 19.483 20.7146 18.694 20.7146 17.7884C20.7146 17.6151 20.6923 17.4293 20.6538 17.2371" stroke="#444444" stroke-miterlimit="10" stroke-linecap="round" stroke-linejoin="round"/>
</svg>
