<svg width="20" height="24" viewBox="0 0 20 24" fill="none" xmlns="http://www.w3.org/2000/svg">
<path d="M3.40144 14.5146C3.15328 14.1139 2.96517 13.6556 2.84887 13.1427C2.43173 11.3033 3.32789 10.3074 4.42134 9.2659" stroke="#444444" stroke-miterlimit="10" stroke-linecap="round" stroke-linejoin="round"/>
<path d="M7.59497 4.04992C8.04286 2.48828 8.51039 1.19504 10.8198 0.603904C15.1597 -0.505346 19.0215 5.39495 14.6303 11.8268C14.5989 11.8728 14.5673 11.9186 14.5353 11.9643" stroke="#444444" stroke-miterlimit="10" stroke-linecap="round" stroke-linejoin="round"/>
<path d="M8.78672 8.23583C7.10043 11.0609 5.41865 10.2352 4.42139 9.26591C5.1239 8.59522 5.90831 7.90578 6.47775 6.96055C7.08206 5.95616 7.33542 4.95786 7.59497 4.04975C9.06595 4.50955 10.3539 5.61102 8.78672 8.23583Z" stroke="#444444" stroke-miterlimit="10" stroke-linecap="round" stroke-linejoin="round"/>
<path d="M9.24102 23.5244C3.20642 23.7265 -0.184513 19.4452 2.0495 15.919C3.0598 14.3243 4.4001 14.2517 5.91233 14.2857" stroke="#444444" stroke-miterlimit="10" stroke-linecap="round" stroke-linejoin="round"/>
<path d="M11.8577 12.8335C13.2825 12.0448 14.5307 11.4598 16.5832 12.6691C20.0592 14.7188 19.2183 20.5228 13.4004 22.7115" stroke="#444444" stroke-miterlimit="10" stroke-linecap="round" stroke-linejoin="round"/>
<path d="M9.72992 16.6334C6.53286 17.4428 5.92958 15.6739 5.91223 14.2858C6.88489 14.3065 7.92875 14.3717 9.00218 14.1046C10.1421 13.8201 11.0297 13.2929 11.8576 12.8336C12.5714 14.1952 12.7006 15.8816 9.72992 16.6334Z" stroke="#444444" stroke-miterlimit="10" stroke-linecap="round" stroke-linejoin="round"/>
</svg>
