<svg width="24" height="24" viewBox="0 0 24 24" fill="none" xmlns="http://www.w3.org/2000/svg">
<g clip-path="url(#clip0_1400_3829)">
<path d="M6.45005 14.9288V14.9292C6.40043 15.2741 6.39932 15.6242 6.44676 15.9694L6.86723 19.043C6.88833 19.1953 6.99286 19.327 7.14051 19.3692C7.33317 19.4241 7.53004 19.3223 7.60083 19.1419L8.02879 18.0441C8.42085 17.0385 9.11633 16.18 10.0186 15.5878M18.5157 15.1481C18.5602 15.42 18.5827 15.6966 18.5827 15.975V18.8306C18.5827 19.0467 18.4074 19.222 18.1908 19.222C18.0104 19.222 17.8529 19.0983 17.8102 18.923C17.7309 18.5965 17.5841 18.2903 17.3794 18.024C17.1747 17.7577 16.9165 17.5371 16.6215 17.3766L15.5583 16.7986C15.2232 16.6166 14.9246 16.3742 14.6775 16.0837M12.7861 11.843V9.93328C12.7861 9.75469 12.9821 9.64547 13.134 9.73969L14.8041 10.7761M9.53817 10.5281L11.0091 9.61547C11.1605 9.52125 11.3569 9.63047 11.3569 9.80906V11.9733M13.2708 0.351562V7.78172C13.2708 8.00625 13.3871 8.21484 13.5779 8.33344L15.5363 9.54891M10.8722 0.351562V7.6575C10.8722 7.88203 10.756 8.09062 10.5652 8.20875L8.56223 9.45141" stroke="#444444" stroke-miterlimit="10" stroke-linecap="round" stroke-linejoin="round"/>
<path d="M10.2225 20.1182C9.97325 19.2542 9.92332 18.3449 10.0765 17.4588C10.1681 16.9284 10.1653 16.3859 10.068 15.8565L9.95653 15.2501C9.90651 14.9779 9.88135 14.7018 9.88135 14.4251V14.187C9.88135 12.8626 10.955 11.7889 12.2794 11.7889C13.6039 11.7889 14.6775 12.8625 14.6775 14.187V16.2376C14.6775 17.7257 14.3141 19.1913 13.619 20.5069C13.2249 21.2529 13.0189 22.0838 13.0189 22.9274V23.2763C13.0189 23.3534 12.995 23.4285 12.9504 23.4913C12.9059 23.5542 12.843 23.6017 12.7703 23.6273C12.6976 23.6528 12.6188 23.6552 12.5447 23.6341C12.4707 23.613 12.4049 23.5694 12.3567 23.5094L11.2997 22.1937C11.1438 21.9996 11.0003 21.7959 10.8699 21.5839M11.1555 14.8209H12.3496M11.9726 17.9628H12.7264M10.8721 1.60498H11.6099M10.8721 4.88515H11.6099M5.32125 10.586L5.96007 11.2249M3.09516 13.8046L3.59035 14.2998M19.1892 10.091C19.3996 10.2696 19.5983 10.4625 19.7836 10.6686L20.2663 11.2053C20.5456 11.5158 20.8728 11.7777 21.2284 11.9968C21.6952 12.2845 22.0965 12.6669 22.4062 13.1194C22.716 13.572 22.9273 14.0844 23.0265 14.6238L23.6125 17.8091C23.6415 17.9668 23.5808 18.1319 23.448 18.2218C23.366 18.2776 23.2662 18.3008 23.168 18.2869C23.0699 18.2729 22.9805 18.2228 22.9174 18.1463L22.1348 17.1975C21.3913 16.2961 20.3765 15.6589 19.2416 15.381C18.359 15.1648 17.5449 14.7303 16.874 14.1174L15.471 12.8354C14.6916 12.1234 14.5284 10.9519 15.0971 10.0505C15.6639 9.15218 16.8005 8.81145 17.774 9.19592M16.8741 14.1174L17.5413 13.3382M20.3821 14.3577L20.8816 13.7117M9.28936 12.6362C9.90455 11.7918 9.82936 10.6286 9.11058 9.87035C8.37493 9.09439 7.18313 8.97129 6.30446 9.58053L5.28605 10.2866C4.64766 10.7291 4.19531 11.392 4.01588 12.1478C3.86241 12.7943 3.50844 13.3756 3.0046 13.8088L2.67938 14.0884C1.82214 14.8254 1.28015 15.8631 1.16503 16.9878L1.12266 17.4018C1.06238 17.9907 0.833733 18.5498 0.464066 19.0122C0.411235 19.0783 0.381893 19.1602 0.380656 19.2448C0.379419 19.3294 0.406358 19.4121 0.457234 19.4797C0.508109 19.5474 0.580034 19.5962 0.66169 19.6185C0.743347 19.6408 0.8301 19.6353 0.9083 19.6029L2.60325 18.8998C2.95284 18.7548 3.26429 18.5312 3.51338 18.2463C3.76248 17.9613 3.94252 17.6228 4.0395 17.257C4.19564 16.6682 4.56448 16.1583 5.07474 15.8256L7.80258 14.0476C8.37982 13.6714 8.88365 13.1931 9.28936 12.6362Z" stroke="#444444" stroke-miterlimit="10" stroke-linecap="round" stroke-linejoin="round"/>
</g>
<defs>
<clipPath id="clip0_1400_3829">
<rect width="24" height="24" fill="white"/>
</clipPath>
</defs>
</svg>
